<svg width="240" height="213" viewBox="0 0 240 213" fill="none" xmlns="http://www.w3.org/2000/svg">
<path d="M113.42 16.1677L38.539 53.4922C35.145 55.1839 33 58.6498 33 62.442V148.421C33 152.136 35.0599 155.545 38.3489 157.273L113.235 196.618C116.082 198.114 119.475 198.149 122.352 196.713L201.466 157.225C204.857 155.533 207 152.068 207 148.278V62.5823C207 58.7174 204.773 55.1985 201.28 53.5444L122.161 16.0796C119.388 14.7666 116.166 14.7991 113.42 16.1677Z" fill="#7CCFFD"/>
<path d="M65.3402 96.2306L63.3874 167.452C63.3643 168.296 63.8737 169.064 64.6605 169.371L89.9598 179.23C91.2711 179.741 92.686 178.774 92.686 177.366V83.8484C92.686 82.3389 91.0779 81.3735 89.7457 82.0832L66.3991 94.5203C65.7643 94.8585 65.3599 95.5116 65.3402 96.2306Z" fill="#162B3E"/>
<path d="M160.465 98.1856C160.465 114.832 139.178 128.326 112.919 128.326C86.6594 128.326 65.3721 114.832 65.3721 98.1856C65.3721 81.5395 86.6594 68.0452 112.919 68.0452C139.178 68.0452 160.465 81.5395 160.465 98.1856Z" fill="#162B3F"/>
<path d="M136.186 101.303C136.186 110.487 124.41 117.932 109.884 117.932C95.3573 117.932 99.7674 110.487 99.7674 101.303C99.7674 92.1192 95.3573 84.6741 109.884 84.6741C114.942 101.303 136.186 92.1192 136.186 101.303Z" fill="#70C9F5"/>
</svg>
