<svg width="1997" height="1686" viewBox="0 0 1997 1686" fill="none" xmlns="http://www.w3.org/2000/svg">
<path d="M727.596 875.059C763.092 838.214 765.876 779.429 734.032 739.148L728.479 732.124C694.858 689.596 633.207 686.478 595.694 725.341C527.644 795.839 468.426 856.999 404.274 923.375C334.625 995.439 334.625 1112.47 404.161 1184.65C411.115 1191.87 422.389 1191.87 429.342 1184.65L727.596 875.059Z" fill="white" fill-opacity="0.5"/>
<path d="M729.288 880.199C764.378 845.109 767.13 789.123 735.649 750.761L730.16 744.071C696.923 703.568 635.976 700.598 598.89 737.61C531.617 804.751 473.074 862.999 409.654 926.215C340.801 994.847 340.8 1106.31 409.543 1175.05C416.417 1181.92 427.562 1181.92 434.437 1175.05L729.288 880.199Z" fill="url(#paint0_linear_2_11)"/>
<path d="M1269.43 909.709C1233.93 872.864 1231.15 814.079 1262.99 773.798L1268.54 766.774C1302.17 724.246 1363.82 721.128 1401.33 759.991C1469.38 830.488 1528.6 891.649 1592.75 958.025C1662.4 1030.09 1662.4 1147.12 1592.86 1219.3C1585.91 1226.52 1574.63 1226.52 1567.68 1219.3L1269.43 909.709Z" fill="white" fill-opacity="0.5"/>
<path d="M1264.94 913.199C1229.84 878.109 1227.09 822.123 1258.57 783.761L1264.06 777.071C1297.3 736.568 1358.25 733.598 1395.33 770.61C1462.61 837.751 1521.15 895.999 1584.57 959.215C1653.42 1027.85 1653.42 1139.31 1584.68 1208.05C1577.81 1214.92 1566.66 1214.92 1559.79 1208.05L1264.94 913.199Z" fill="url(#paint1_linear_2_11)"/>
<path d="M598.02 570.296C655.256 399.531 817.577 290 997.678 290C1188.08 290 1357.25 412.474 1407.81 596.045C1500.3 931.904 1611.57 1424 1469.4 1424C1253.59 1424 1317.01 1424 1317.01 1424H699.336C699.336 1424 833.597 1424 541.373 1424C343.891 1424 485.464 906.105 598.02 570.296Z" fill="white" fill-opacity="0.5"/>
<path d="M598.181 598.619C656.488 430.162 817.678 323 995.941 323C1184.8 323 1353.1 443.309 1404.73 624.972C1495.54 944.487 1601.64 1403 1462.63 1403C1249.28 1403 1311.98 1403 1311.98 1403H701.35C701.35 1403 834.078 1403 545.19 1403C351.717 1403 487.428 918.599 598.181 598.619Z" fill="url(#paint2_linear_2_11)"/>
<ellipse cx="1121" cy="711.645" rx="55" ry="75.5" fill="#EEBC3E"/>
<circle cx="1098.11" cy="673.258" r="20" transform="rotate(-51.2928 1098.11 673.258)" fill="white" fill-opacity="0.5"/>
<ellipse cx="891.001" cy="711.645" rx="55" ry="75.5" fill="#EEBC3E"/>
<circle cx="872.115" cy="670.258" r="20" transform="rotate(-51.2928 872.115 670.258)" fill="white" fill-opacity="0.5"/>
<ellipse cx="726.522" cy="514.889" rx="55" ry="82.4736" transform="rotate(38.7603 726.522 514.889)" fill="white"/>
<path d="M1198 398.145C1233.23 427.013 1288.25 448.005 1269 471.501C1249.75 494.997 1168.03 500.369 1132.8 471.501C1097.56 442.633 1084.61 400.184 1103.86 376.688C1123.11 353.192 1162.77 369.277 1198 398.145Z" fill="white"/>
<line x1="1231.87" y1="803.638" x2="1197.87" y2="863.638" stroke="black" stroke-width="2"/>
<line x1="1258.86" y1="803.651" x2="1231.86" y2="849.651" stroke="black" stroke-width="2"/>
<line x1="1285.83" y1="804.109" x2="1270.83" y2="826.698" stroke="black" stroke-width="2"/>
<defs>
<linearGradient id="paint0_linear_2_11" x1="544.653" y1="1033" x2="315.153" y2="1114" gradientUnits="userSpaceOnUse">
<stop stop-color="#FEF28C"/>
<stop offset="1" stop-color="#EEBC3E"/>
</linearGradient>
<linearGradient id="paint1_linear_2_11" x1="1449.57" y1="1066" x2="1679.07" y2="1147" gradientUnits="userSpaceOnUse">
<stop stop-color="#FEF28C"/>
<stop offset="1" stop-color="#EEBC3E"/>
</linearGradient>
<linearGradient id="paint2_linear_2_11" x1="988.653" y1="952.5" x2="988.682" y2="1403" gradientUnits="userSpaceOnUse">
<stop stop-color="#FEF28C"/>
<stop offset="1" stop-color="#EEBC3E"/>
</linearGradient>
</defs>
</svg>
